<?xml version="1.0" encoding="UTF-8"?> <!-- Generator: Adobe Illustrator 23.0.1, SVG Export Plug-In . SVG Version: 6.00 Build 0) --> <svg xmlns="http://www.w3.org/2000/svg" xmlns:xlink="http://www.w3.org/1999/xlink" version="1.1" id="Layer_1" x="0px" y="0px" viewBox="0 0 774 131" style="enable-background:new 0 0 774 131;" xml:space="preserve"> <style type="text/css"> .st0{fill:#49A94C;} .st1{fill:#FFFFFF;} </style> <path class="st0" d="M65.7,0v5.7c22.5,8.7,37.3,30.4,37.2,54.5c-0.2-0.4-0.3-0.7-0.5-1.1C98,40.9,83.9,26.5,65.8,21.8v4.5 c12,3.4,22.1,11.5,28,22.4C81,38.3,60.1,35.3,39.5,42.5C11.2,52.3-5.7,77.6,1.7,98.8c5.7,16.2,23.8,25.4,44.7,24.5 c13.8-5.1,24.8-14,31.3-24.1c-1.4,7.1-4.5,13.8-9.1,19.4c20.3-7.9,34.2-23.7,36.7-39.9c0.9-3,1.6-6,2.1-9.1 C112.2,39.4,94.6,10.1,65.7,0L65.7,0z"></path> <path d="M81.7,65.1c2.8,12.1-7.9,25.1-24.1,28.8c-16.1,3.8-31.6-3-34.4-15.1c-2.9-12.1,7.9-25.1,24.1-28.9 C63.5,46.1,78.9,52.9,81.7,65.1z"></path> <path class="st1" d="M69.5,62c1.2,4.9-3.2,10.1-9.7,11.6s-12.7-1.2-13.9-6.1c-1.2-4.9,3.2-10.1,9.7-11.6S68.3,57.1,69.5,62z"></path> <path d="M158.5,111.2c-24,0-32.8-14.2-32.8-35.5V62.4c0-20.3,9.2-35.5,33.6-35.5c7.9,0,16.5,1.8,21.9,7c1.3,0.8,2.1,2.1,2.1,3.7 c0,2.3-1.8,4.5-5.4,4.5c-1.9,0.1-3.1-1-5.1-2.3c-3.5-2.5-8-3.7-13.5-3.7c-15.2,0-22,9-22,26.4v13c0,18.4,6.4,26.4,21.3,26.4 c13.6,0,19.2-7.3,19.2-18.8v-6h-15.5c-3,0-5.5-2.1-5.5-4.8s2.5-4.8,5.5-4.8h21.3c3.2,0,5.6,2.1,5.6,5.1v10.2 C189.1,99,179.9,111.2,158.5,111.2z M233.3,62.8c-2.1-0.5-4.3-0.7-6.4-0.7c-5.5,0-12.3,1.6-14.3,10.3V106c0,2.9-2.6,5-5.7,5 c-3.1,0-5.7-2.3-5.7-5V67.9c0-4.5-1.4-5.9-4.1-7.2c-1.3-0.6-2.1-1.8-2.1-3.2c0-2.7,2.1-4.3,5.6-4.3c0.6,0,1.2,0,1.8,0.1 c4.9,1.2,7.4,3.8,8.7,7c5.6-6.9,13.1-7.8,17.9-7.8c3-0.1,5.9,0.4,8.7,1.3c1.1,0.5,1.9,1.3,2.4,2.4c0.5,1.1,0.4,2.3-0.1,3.3 C238.8,62.2,235.9,63.6,233.3,62.8z M290.3,111c-2.4,0-4.8-0.8-6.7-2.4c-1.2-0.8-2-2-2.6-3.3c-4.9,4.7-12.4,5.7-18.2,5.7 c-16,0-22.7-7.2-22.7-16.6v-1c0-9.4,7.4-16.4,23.8-16.4h14.8v-2.7c0-9.1-2.5-13.6-13.4-13.6c-4.5-0.1-9.1,0.8-13.1,2.9 c-5.9,2.7-10.6-4.1-5.1-7.2c5.1-2.9,11.9-3.9,19-3.9c18.5,0,23.9,7.8,23.9,22.7v21c0,4.5,1.2,5.9,3.6,7.2c1.3,0.6,2.1,1.8,2.1,3.2 C295.9,109.6,293.6,111,290.3,111z M278.8,84.8h-13.6c-10.9,0-13.7,4.2-13.7,8.8v0.8c0,4.8,3,8.8,13.3,8.8c8.7,0,14-3.8,14-11.9 L278.8,84.8L278.8,84.8z M323.2,111c-8.4,0-13.3-1-18.3-2.5c-1.2-0.2-2.1-1.1-2.6-2.1c-0.6-1.1-0.6-2.3-0.1-3.5 c1.1-2.4,3.8-3.6,6.3-2.6c4.8,1.7,9.8,2.4,14.9,2.3c9.6,0,13.9-3.6,13.9-8.7c0-7.2-9.3-7.4-18.3-9.3c-8.6-1.7-16.7-4.5-16.7-15.3 s9.7-16.8,22.1-16.8c5.6-0.1,11.3,0.6,16.7,2.4c2.9,1.1,3.8,3.3,3,5.6c-1.1,2.3-3.8,3.5-6.2,2.6c-4.2-1.4-8.5-2.1-12.9-2.1 c-8,0-11.9,3.2-11.9,7.9c0,6.4,7.8,7.2,16.5,8.6c9.1,1.7,18.6,4.2,18.6,16C348.1,105.5,337.5,111,323.2,111z M375.9,111 c-8.4,0-13.3-1-18.3-2.5c-1.2-0.4-2.1-1.1-2.6-2.1c-0.6-1.1-0.6-2.3-0.1-3.5c1.1-2.4,3.8-3.6,6.3-2.6c4.8,1.7,9.8,2.4,14.9,2.3 c9.6,0,13.9-3.6,13.9-8.7c0-7.2-9.3-7.4-18.3-9.3C363.3,82.8,355,80,355,69.2s9.7-16.8,22.1-16.8c5.6-0.1,11.3,0.6,16.7,2.4 c2.9,1.1,3.8,3.3,3,5.6c-1.1,2.3-3.8,3.5-6.2,2.6c-4.2-1.4-8.5-2.3-12.9-2.1c-8,0-11.9,3.2-11.9,7.9c0,6.4,7.8,7.2,16.5,8.6 c9.1,1.7,18.6,4.2,18.6,16C400.8,105.4,390.1,111,375.9,111z M455,111c-3.1,0-5.7-2.1-5.7-5V74.1c0-7.2-2.3-12.2-12.2-12.2 c-7.5,0-12.8,2.9-15.8,7.2v37c0,2.9-2.5,5-5.7,5c-1.4,0.1-2.7-0.4-3.8-1.3c-1.1-1-1.7-2.3-1.8-3.7V33.4c0-2.7,2.5-4.9,5.6-4.9 s5.7,2.1,5.7,4.9v24.7c4.3-3.3,10.3-5.4,18.2-5.4c16.2,0,21.3,9,21.3,20.7v32.7C460.7,108.9,458.1,111,455,111z M496.3,111 c-18.4,0-26-10.5-26-23.4V75.9c0-12.9,7.6-23.4,26-23.4s26.2,10.5,26.2,23.4v11.6C522.3,100.5,514.8,111,496.3,111z M511,75.9 c0-8.7-4.3-14.3-14.7-14.3c-10.5,0-14.6,5.6-14.6,14.3v11.6c0,8.8,4.3,14.3,14.6,14.3c10.4,0,14.7-5.5,14.7-14.3V75.9z M560.1,111 c-5.5,0-10.7-1.6-15.4-4.4v19.5c0,2.9-2.6,5-5.7,5c-1.4,0.1-2.7-0.4-3.8-1.3c-1.1-1-1.7-2.3-1.8-3.7V67.3c0-4.7-1.1-5.9-3.6-7.2 c-1.3-0.5-2.3-1.8-2.3-3.2c0-3,2.4-4.3,5.6-4.3c2.5,0.1,4.9,1,6.8,2.4c1,0.7,1.8,1.6,2.4,2.6c5-3.2,11-4.9,17-5 c16.8,0,23.9,8.2,23.9,22.8v10.3C583.4,100.8,577.2,111,560.1,111z M572,74.8c0-9.1-3.7-13.6-14.2-13.6c-4.8,0.1-9.3,1.8-13,4.8 v31.3c3.7,3.2,8.5,5.1,13.4,5.3c9.8,0,13.9-5.5,13.9-15.3L572,74.8L572,74.8z M621.2,111c-5.5,0-10.7-1.6-15.4-4.4v19.5 c0,2.9-2.6,5-5.7,5c-1.4,0.1-2.7-0.4-3.8-1.3s-1.7-2.3-1.8-3.7V67.3c0-4.7-1.1-5.9-3.6-7.2c-1.3-0.5-2.1-1.8-2.1-3.2 c0-3,2.5-4.3,5.6-4.3c2.5,0.1,4.9,1,6.8,2.4c1,0.7,1.8,1.6,2.5,2.6c5-3.2,11-4.9,17-5c16.8,0,23.9,8.2,23.9,22.8v10.3 C644.4,100.8,638.2,111,621.2,111z M633.1,74.8c0-9.1-3.7-13.6-14.2-13.6c-4.8,0.1-9.3,1.8-13.1,4.8v31.3c3.7,3.2,8.5,5.1,13.5,5.3 c9.8,0,13.9-5.5,13.9-15.3L633.1,74.8z M702.8,80.9c0,1.1-0.5,2.1-1.3,2.9c-0.8,0.7-1.9,1.1-3,1h-35.4v3.1c0,9,4.5,14.7,14.6,14.7 c5.6,0.2,11.1-0.8,16.1-3.2c1.1-0.5,2.4-0.6,3.5-0.1c1.2,0.5,2,1.3,2.5,2.4c0.5,1,0.5,2.1,0.1,3.1c-0.4,1-1.2,1.8-2.3,2.1 c-6.4,2.9-13.4,4.2-20.4,4.1c-18.6,0-25.4-11.1-25.4-24V76.4c0-12.9,7.4-24,25.4-24c18.9,0,25.3,11,25.3,23.8v4.8L702.8,80.9 L702.8,80.9z M691.8,75.1c0-8.8-3.6-14.3-14.1-14.3c-10.2,0-14.5,5.6-14.5,14.3V77h28.7L691.8,75.1z M745.6,62.8 c-2.1-0.5-4.3-0.7-6.4-0.7c-5.5,0-12.3,1.6-14.3,10.3V106c0,2.9-2.6,5-5.7,5c-3.1,0-5.7-2.3-5.7-5V67.9c0-4.5-1.4-5.9-4.1-7.2 c-1.3-0.5-2.3-1.8-2.1-3.2c0-2.7,2.1-4.3,5.6-4.3c0.6,0,1.2,0,1.8,0.1c4.9,1.2,7.4,3.8,8.7,7c5.6-6.9,13.1-7.8,17.9-7.8 c3-0.1,5.9,0.4,8.7,1.3c1.1,0.5,2,1.3,2.4,2.4c0.5,1.1,0.5,2.3,0,3.3C751.2,62.3,748.3,63.6,745.6,62.8z M766.5,64.2 c-3.1,0-5.9-1.8-7-4.7c-1.2-2.9-0.5-6.1,1.7-8.2c2.1-2.1,5.4-2.9,8.2-1.7c2.9,1.2,4.7,3.9,4.7,6.9C774,60.7,770.5,64.2,766.5,64.2 L766.5,64.2z M766.5,50.1c-2.6,0-5,1.6-6,3.9c-1.1,2.4-0.5,5.3,1.3,7c1.8,1.9,4.7,2.4,7,1.4s4.1-3.3,4.1-6 C772.8,53.1,769.9,50.2,766.5,50.1L766.5,50.1z M767.4,57.2L769,60c0,0.1,0,0.1,0,0.2s0,0.2-0.1,0.4c-0.1,0.1-0.2,0.1-0.4,0.1 c-0.2,0-0.4-0.1-0.5-0.2l-1.7-3.2h-1.4v3c0,0.1-0.1,0.2-0.1,0.4c-0.1,0.1-0.2,0.1-0.4,0.1c-0.1,0-0.2,0-0.4-0.1s-0.1-0.2-0.1-0.4V53 c0-0.1,0-0.2,0.1-0.4c0.1-0.1,0.2-0.1,0.4-0.1h2.3c1.9,0,2.6,1.1,2.6,2.1v0.5C769.1,56.1,768.5,56.9,767.4,57.2L767.4,57.2z M768.1,54.7c0-0.5-0.2-1.2-1.6-1.2h-1.7v2.9h1.7c1.3,0,1.6-0.7,1.6-1.2V54.7z"></path> </svg> 